# xmcd CD database file
#
# Track frame offsets:
#	150
#	17733
#	31692
#	56601
#	72274
#	94478
#	108304
#	125290
#	144598
#	160413
#
# Disc length: 2458 seconds
#
# Revision: 0
# Processed by: cddbd v1.5.2PL0 Copyright (c) Steve Scherf et al.
# Submitted via: CDex 1.70beta2
#
DISCID=8409980a
DTITLE=Kari Bremnes - Gate Ved Gate
DYEAR=1994
DGENRE=Jazz
TTITLE0=En Eisker i Berlin
TTITLE1=Fiola
TTITLE2=Gate Ved Gate
TTITLE3=I Dine Skap
TTITLE4=En Bar I Tanger
TTITLE5=Togsang
TTITLE6=Lysbroen
TTITLE7=De Halve Setningers Gudinner
TTITLE8=Live Som Blei Borte
TTITLE9=En Rod For Alt Det Sote
EXTD=YEAR: 1994
EXTT0=
EXTT1=
EXTT2=
EXTT3=
EXTT4=
EXTT5=
EXTT6=
EXTT7=
EXTT8=
EXTT9=
PLAYORDER=
